<svg xmlns="http://www.w3.org/2000/svg" width="420mm" height="297mm" viewBox="0 0 420 297">
  <rect width="420" height="297" fill="#fff"/>
  <rect x="24" y="24" width="372" height="249" fill="none" stroke="#000" stroke-width="1.2"/>
  <rect x="75.60" y="50.49" width="268.80" height="196.02" fill="#f7f7f7" stroke="#000" stroke-width="1.4"/>
  <line x1="109.20" y1="50.49" x2="109.20" y2="246.51000000000002" stroke="#d8d8d8" stroke-width="0.7"/>
  <line x1="75.6" y1="74.99" x2="344.40000000000003" y2="74.99" stroke="#d8d8d8" stroke-width="0.7"/>
  <line x1="142.80" y1="50.49" x2="142.80" y2="246.51000000000002" stroke="#d8d8d8" stroke-width="0.7"/>
  <line x1="75.6" y1="99.50" x2="344.40000000000003" y2="99.50" stroke="#d8d8d8" stroke-width="0.7"/>
  <line x1="176.40" y1="50.49" x2="176.40" y2="246.51000000000002" stroke="#d8d8d8" stroke-width="0.7"/>
  <line x1="75.6" y1="124.00" x2="344.40000000000003" y2="124.00" stroke="#d8d8d8" stroke-width="0.7"/>
  <line x1="210.00" y1="50.49" x2="210.00" y2="246.51000000000002" stroke="#d8d8d8" stroke-width="0.7"/>
  <line x1="75.6" y1="148.50" x2="344.40000000000003" y2="148.50" stroke="#d8d8d8" stroke-width="0.7"/>
  <line x1="243.60" y1="50.49" x2="243.60" y2="246.51000000000002" stroke="#d8d8d8" stroke-width="0.7"/>
  <line x1="75.6" y1="173.00" x2="344.40000000000003" y2="173.00" stroke="#d8d8d8" stroke-width="0.7"/>
  <line x1="277.20" y1="50.49" x2="277.20" y2="246.51000000000002" stroke="#d8d8d8" stroke-width="0.7"/>
  <line x1="75.6" y1="197.51" x2="344.40000000000003" y2="197.51" stroke="#d8d8d8" stroke-width="0.7"/>
  <line x1="310.80" y1="50.49" x2="310.80" y2="246.51000000000002" stroke="#d8d8d8" stroke-width="0.7"/>
  <line x1="75.6" y1="222.01" x2="344.40000000000003" y2="222.01" stroke="#d8d8d8" stroke-width="0.7"/>
  <line x1="75.60" y1="148.50" x2="344.40" y2="148.50" stroke="#000" stroke-width="1"/>
  <line x1="210.00" y1="50.49" x2="210.00" y2="246.51" stroke="#000" stroke-width="1"/>
  <g transform="rotate(0 35.91 32.67)">
    <svg x="21.00" y="17.82" width="29.82" height="29.70" viewBox="0 0 512 512">
        <rect width="512" height="512" fill="#fff"/>
      
        <rect x="24" y="24" width="464" height="464" fill="none" stroke="#000" stroke-width="32"/>
        <rect x="54" y="54" width="404" height="404" fill="none" stroke="#000" stroke-width="12"/>
        <rect x="92" y="92" width="116" height="44" fill="#000"/>
        <rect x="92" y="92" width="44" height="178" fill="#000"/>
        <rect x="190" y="170" width="120" height="32" fill="#000"/>
        <rect x="170" y="242" width="62" height="62" fill="#000"/>
        <rect x="286" y="246" width="104" height="36" fill="#000"/>
        <rect x="346" y="118" width="42" height="128" fill="#000"/>
        <rect x="284" y="334" width="122" height="42" fill="#000"/>
        <rect x="118" y="366" width="62" height="62" fill="#000"/>
    </svg>
  </g>
  <g transform="rotate(0 210.00 30.29)">
    <svg x="195.09" y="15.44" width="29.82" height="29.70" viewBox="0 0 512 512">
        <rect width="512" height="512" fill="#fff"/>
      
        <polygon points="256,30 482,256 256,482 30,256" fill="#000"/>
        <polygon points="256,88 424,256 256,424 88,256" fill="#fff"/>
        <polygon points="256,138 374,256 256,374 138,256" fill="#000"/>
        <rect x="196" y="94" width="62" height="62" fill="#000"/>
        <rect x="322" y="208" width="74" height="42" fill="#000"/>
        <rect x="122" y="274" width="88" height="38" fill="#000"/>
        <rect x="246" y="330" width="46" height="86" fill="#000"/>
        <circle cx="314" cy="170" r="26" fill="#fff"/>
        <rect x="222" y="226" width="68" height="68" fill="#fff"/>
    </svg>
  </g>
  <g transform="rotate(0 384.09 32.67)">
    <svg x="369.18" y="17.82" width="29.82" height="29.70" viewBox="0 0 512 512">
        <rect width="512" height="512" fill="#fff"/>
      
        <rect x="24" y="24" width="464" height="464" fill="none" stroke="#000" stroke-width="32"/>
        <rect x="54" y="54" width="404" height="404" fill="none" stroke="#000" stroke-width="12"/>
        <polygon points="76,92 420,92 92,420 76,420" fill="#000"/>
        <polygon points="420,138 420,244 244,420 138,420" fill="#000"/>
        <rect x="110" y="122" width="62" height="62" fill="#fff"/>
        <rect x="204" y="124" width="40" height="96" fill="#fff"/>
        <rect x="300" y="130" width="78" height="40" fill="#000"/>
        <rect x="284" y="254" width="98" height="42" fill="#000"/>
        <rect x="128" y="298" width="46" height="84" fill="#fff"/>
        <rect x="332" y="344" width="58" height="58" fill="#000"/>
    </svg>
  </g>
  <g transform="rotate(-90 35.91 148.50)">
    <svg x="21.00" y="133.65" width="29.82" height="29.70" viewBox="0 0 512 512">
        <rect width="512" height="512" fill="#fff"/>
      
        <circle cx="256" cy="256" r="214" fill="#000"/>
        <circle cx="256" cy="256" r="164" fill="#fff"/>
        <circle cx="256" cy="256" r="112" fill="#000"/>
        <circle cx="256" cy="256" r="58" fill="#fff"/>
        <rect x="254" y="42" width="80" height="140" fill="#fff"/>
        <rect x="332" y="112" width="104" height="40" fill="#fff"/>
        <rect x="88" y="328" width="124" height="40" fill="#fff"/>
        <rect x="296" y="300" width="44" height="128" fill="#000"/>
        <rect x="156" y="126" width="50" height="50" fill="#000"/>
    </svg>
  </g>
  <g transform="rotate(90 384.09 148.50)">
    <svg x="369.18" y="133.65" width="29.82" height="29.70" viewBox="0 0 512 512">
        <rect width="512" height="512" fill="#fff"/>
      
        <rect x="24" y="24" width="464" height="464" fill="none" stroke="#000" stroke-width="32"/>
        <rect x="54" y="54" width="404" height="404" fill="none" stroke="#000" stroke-width="12"/>
        <rect x="88" y="90" width="88" height="88" fill="#000"/>
        <rect x="214" y="90" width="42" height="126" fill="#000"/>
        <rect x="310" y="92" width="110" height="54" fill="#000"/>
        <rect x="88" y="220" width="54" height="122" fill="#000"/>
        <rect x="188" y="250" width="88" height="88" fill="#000"/>
        <rect x="326" y="214" width="44" height="158" fill="#000"/>
        <rect x="104" y="390" width="138" height="36" fill="#000"/>
        <rect x="288" y="404" width="52" height="52" fill="#000"/>
        <rect x="386" y="328" width="42" height="92" fill="#000"/>
    </svg>
  </g>
  <g transform="rotate(180 35.91 264.33)">
    <svg x="21.00" y="249.48" width="29.82" height="29.70" viewBox="0 0 512 512">
        <rect width="512" height="512" fill="#fff"/>
      
        <rect x="24" y="24" width="464" height="464" fill="none" stroke="#000" stroke-width="32"/>
        <rect x="54" y="54" width="404" height="404" fill="none" stroke="#000" stroke-width="12"/>
        <rect x="226" y="88" width="60" height="336" fill="#000"/>
        <rect x="88" y="226" width="336" height="60" fill="#000"/>
        <rect x="92" y="92" width="112" height="32" fill="#000"/>
        <rect x="92" y="92" width="32" height="112" fill="#000"/>
        <rect x="318" y="82" width="104" height="40" fill="#000"/>
        <rect x="388" y="82" width="36" height="122" fill="#000"/>
        <rect x="90" y="356" width="42" height="72" fill="#000"/>
        <rect x="90" y="390" width="130" height="38" fill="#000"/>
        <rect x="350" y="350" width="72" height="72" fill="#000"/>
        <rect x="168" y="154" width="38" height="38" fill="#fff"/>
        <rect x="314" y="296" width="46" height="46" fill="#fff"/>
    </svg>
  </g>
  <g transform="rotate(180 210.00 266.71)">
    <svg x="195.09" y="251.86" width="29.82" height="29.70" viewBox="0 0 512 512">
        <rect width="512" height="512" fill="#fff"/>
      
        <rect x="24" y="24" width="464" height="464" fill="none" stroke="#000" stroke-width="32"/>
        <rect x="54" y="54" width="404" height="404" fill="none" stroke="#000" stroke-width="12"/>
        <rect x="94" y="370" width="320" height="42" fill="#000"/>
        <rect x="94" y="318" width="270" height="42" fill="#000"/>
        <rect x="94" y="266" width="218" height="42" fill="#000"/>
        <rect x="94" y="214" width="166" height="42" fill="#000"/>
        <rect x="94" y="162" width="114" height="42" fill="#000"/>
        <rect x="94" y="110" width="62" height="42" fill="#000"/>
        <rect x="300" y="102" width="102" height="64" fill="#000"/>
        <rect x="342" y="202" width="56" height="96" fill="#000"/>
        <rect x="220" y="116" width="46" height="46" fill="#000"/>
        <rect x="154" y="330" width="42" height="42" fill="#fff"/>
    </svg>
  </g>
  <g transform="rotate(180 384.09 264.33)">
    <svg x="369.18" y="249.48" width="29.82" height="29.70" viewBox="0 0 512 512">
        <rect width="512" height="512" fill="#fff"/>
      
        <rect x="24" y="24" width="464" height="464" fill="none" stroke="#000" stroke-width="32"/>
        <rect x="54" y="54" width="404" height="404" fill="none" stroke="#000" stroke-width="12"/>
        <rect x="92" y="92" width="144" height="144" fill="#000"/>
        <rect x="278" y="92" width="142" height="142" fill="#000"/>
        <rect x="92" y="278" width="142" height="142" fill="#000"/>
        <rect x="278" y="278" width="142" height="142" fill="#000"/>
        <rect x="142" y="142" width="48" height="48" fill="#fff"/>
        <rect x="320" y="118" width="72" height="34" fill="#fff"/>
        <rect x="336" y="152" width="34" height="54" fill="#fff"/>
        <rect x="120" y="326" width="88" height="36" fill="#fff"/>
        <rect x="320" y="318" width="52" height="52" fill="#fff"/>
        <rect x="370" y="370" width="28" height="28" fill="#fff"/>
        <rect x="232" y="232" width="48" height="48" fill="#000"/>
    </svg>
  </g>
</svg>
